<svg width="16.000244" height="16.000000" viewBox="0 0 16.0002 16" fill="none" xmlns="http://www.w3.org/2000/svg" xmlns:xlink="http://www.w3.org/1999/xlink">
	<desc>
			Created with Pixso.
	</desc>
	<defs/>
	<g opacity="0.100000">
		<path id="Shape" d="M8.16 0.6L10.14 5.29L15.21 5.73C15.57 5.76 15.71 6.2 15.44 6.43L11.59 9.77L12.75 14.73C12.83 15.07 12.45 15.34 12.15 15.16L7.79 12.53L3.43 15.16C3.12 15.34 2.75 15.07 2.83 14.73L3.98 9.77L0.13 6.43C-0.13 6.2 0.01 5.76 0.36 5.73L5.44 5.29L7.42 0.6C7.56 0.28 8.02 0.28 8.16 0.6Z" fill="#000000" fill-opacity="1.000000" fill-rule="nonzero"/>
	</g>
	<path id="Shape" d="M7.79 12.53L3.43 15.16C3.12 15.34 2.75 15.07 2.83 14.73L3.98 9.77L0.13 6.43C-0.13 6.2 0.01 5.76 0.36 5.73L5.44 5.29L7.42 0.6C7.49 0.43 7.65 0.35 7.81 0.36C7.95 0.36 7.79 12.53 7.79 12.53Z" fill="#278FB4" fill-opacity="1.000000" fill-rule="nonzero"/>
</svg>
