<svg width="22.000000" height="22.000000" viewBox="0 0 22 22" fill="none" xmlns="http://www.w3.org/2000/svg" xmlns:xlink="http://www.w3.org/1999/xlink">
	<desc>
			Created with Pixso.
	</desc>
	<defs/>
	<path id="Oval" d="M21 11C21 5.47 16.52 1 11 1C5.47 1 1 5.47 1 11C1 16.52 5.47 21 11 21C16.52 21 21 16.52 21 11Z" stroke="#278FB4" stroke-opacity="1.000000" stroke-width="2.000000" stroke-linejoin="round"/>
	<path id="Shape" d="M1 11L21 11" stroke="#278FB4" stroke-opacity="1.000000" stroke-width="2.000000" stroke-linejoin="round" stroke-linecap="round"/>
	<path id="Shape" d="M15 11C14.92 14.7 13.5 18.26 11 21C8.49 18.26 7.07 14.7 7 11C7.07 7.29 8.49 3.73 11 1L11 1C13.5 3.73 14.92 7.29 15 11Z" stroke="#278FB4" stroke-opacity="1.000000" stroke-width="2.000000" stroke-linejoin="round"/>
</svg>
