<svg width="49.000000" height="49.000000" viewBox="0 0 49 49" fill="none" xmlns="http://www.w3.org/2000/svg" xmlns:xlink="http://www.w3.org/1999/xlink">
	<desc>
			Created with Pixso.
	</desc>
	<defs/>
	<path id="Oval 2" d="M24.5 48.5C37.75 48.5 48.5 37.75 48.5 24.5C48.5 11.24 37.75 0.5 24.5 0.5C11.24 0.5 0.5 11.24 0.5 24.5C0.5 37.75 11.24 48.5 24.5 48.5Z" fill="#FCFCFC" fill-opacity="1.000000" fill-rule="nonzero"/>
	<path id="Oval 2" d="M48.5 24.5C48.5 11.24 37.75 0.5 24.5 0.5C11.24 0.5 0.5 11.24 0.5 24.5C0.5 37.75 11.24 48.5 24.5 48.5C37.75 48.5 48.5 37.75 48.5 24.5Z" stroke="#E8E8E8" stroke-opacity="1.000000" stroke-width="1.000000"/>
	<rect id="Rectangle-path" x="14.500000" y="19.500000" rx="2.000000" width="20.000000" height="14.000000" stroke="#278FB4" stroke-opacity="1.000000" stroke-width="2.000000" stroke-linejoin="round"/>
	<path id="Shape" d="M28.5 33.5L28.5 17.5C28.5 16.39 27.6 15.5 26.5 15.5L22.5 15.5C21.39 15.5 20.5 16.39 20.5 17.5L20.5 33.5" stroke="#278FB4" stroke-opacity="1.000000" stroke-width="2.000000" stroke-linejoin="round" stroke-linecap="round"/>
</svg>
