<svg width="49.000000" height="49.000000" viewBox="0 0 49 49" fill="none" xmlns="http://www.w3.org/2000/svg" xmlns:xlink="http://www.w3.org/1999/xlink">
	<desc>
			Created with Pixso.
	</desc>
	<defs/>
	<path id="Oval 2" d="M24.5 48.5C37.75 48.5 48.5 37.75 48.5 24.5C48.5 11.24 37.75 0.5 24.5 0.5C11.24 0.5 0.5 11.24 0.5 24.5C0.5 37.75 11.24 48.5 24.5 48.5Z" fill="#FCFCFC" fill-opacity="1.000000" fill-rule="nonzero"/>
	<path id="Oval 2" d="M48.5 24.5C48.5 11.24 37.75 0.5 24.5 0.5C11.24 0.5 0.5 11.24 0.5 24.5C0.5 37.75 11.24 48.5 24.5 48.5C37.75 48.5 48.5 37.75 48.5 24.5Z" stroke="#E8E8E8" stroke-opacity="1.000000" stroke-width="1.000000"/>
	<path id="Oval" d="M34.5 24.5C34.5 18.97 30.02 14.5 24.5 14.5C18.97 14.5 14.5 18.97 14.5 24.5C14.5 30.02 18.97 34.5 24.5 34.5C30.02 34.5 34.5 30.02 34.5 24.5Z" stroke="#278FB4" stroke-opacity="1.000000" stroke-width="2.000000" stroke-linejoin="round"/>
	<path id="Shape" d="M26.62 26.62L20.26 28.74L22.38 22.38L28.74 20.26L26.62 26.62Z" stroke="#278FB4" stroke-opacity="1.000000" stroke-width="2.000000" stroke-linejoin="round"/>
</svg>
