<svg width="49.000000" height="49.000000" viewBox="0 0 49 49" fill="none" xmlns="http://www.w3.org/2000/svg" xmlns:xlink="http://www.w3.org/1999/xlink">
	<desc>
			Created with Pixso.
	</desc>
	<defs/>
	<path id="Vector 3" d="M24.5 48.5C37.75 48.5 48.5 37.75 48.5 24.5C48.5 11.24 37.75 0.5 24.5 0.5C11.24 0.5 0.5 11.24 0.5 24.5C0.5 37.75 11.24 48.5 24.5 48.5Z" fill="#FCFCFC" fill-opacity="1.000000" fill-rule="nonzero"/>
	<path id="Vector 3" d="M48.5 24.5C48.5 11.24 37.75 0.5 24.5 0.5C11.24 0.5 0.5 11.24 0.5 24.5C0.5 37.75 11.24 48.5 24.5 48.5C37.75 48.5 48.5 37.75 48.5 24.5Z" stroke="#E8E8E8" stroke-opacity="1.000000" stroke-width="1.000000"/>
	<path id="Vector 2" d="M18.5 14.5C17.39 14.5 16.5 15.39 16.5 16.5L16.5 32.5C16.5 33.6 17.39 34.5 18.5 34.5L30.5 34.5C31.6 34.5 32.5 33.6 32.5 32.5L32.5 20.5L26.5 14.5L18.5 14.5ZM26.5 14.5L26.5 20.5L32.5 20.5M28.5 25.5L20.5 25.5M28.5 29.5L20.5 29.5M22.5 21.5L21.5 21.5L20.5 21.5" stroke="#278FB4" stroke-opacity="1.000000" stroke-width="2.000000" stroke-linejoin="round"/>
</svg>
