<svg width="49.000000" height="49.000000" viewBox="0 0 49 49" fill="none" xmlns="http://www.w3.org/2000/svg" xmlns:xlink="http://www.w3.org/1999/xlink">
	<desc>
			Created with Pixso.
	</desc>
	<defs/>
	<path id="Oval 2" d="M24.5 48.5C11.24 48.5 0.5 37.75 0.5 24.5C0.5 11.24 11.24 0.5 24.5 0.5C37.75 0.5 48.5 11.24 48.5 24.5C48.5 37.75 37.75 48.5 24.5 48.5Z" fill="#FCFCFC" fill-opacity="1.000000" fill-rule="nonzero"/>
	<path id="Oval 2" d="M0.5 24.5C0.5 11.24 11.24 0.5 24.5 0.5C37.75 0.5 48.5 11.24 48.5 24.5C48.5 37.75 37.75 48.5 24.5 48.5C11.24 48.5 0.5 37.75 0.5 24.5Z" stroke="#E8E8E8" stroke-opacity="1.000000" stroke-width="1.000000"/>
	<path id="Shape" d="M25.5 13L34.5 20L34.5 31C34.5 32.1 33.6 33 32.5 33L18.5 33C17.39 33 16.5 32.1 16.5 31L16.5 20L25.5 13Z" stroke="#278FB4" stroke-opacity="1.000000" stroke-width="2.000000" stroke-linejoin="round"/>
	<path id="Shape" d="M22.5 33L22.5 23L28.5 23L28.5 33" stroke="#278FB4" stroke-opacity="1.000000" stroke-width="2.000000" stroke-linejoin="round" stroke-linecap="round"/>
</svg>
