<svg width="49.000000" height="49.000000" viewBox="0 0 49 49" fill="none" xmlns="http://www.w3.org/2000/svg" xmlns:xlink="http://www.w3.org/1999/xlink">
	<desc>
			Created with Pixso.
	</desc>
	<defs/>
	<path id="Oval 2" d="M24.5 48.5C37.75 48.5 48.5 37.75 48.5 24.5C48.5 11.24 37.75 0.5 24.5 0.5C11.24 0.5 0.5 11.24 0.5 24.5C0.5 37.75 11.24 48.5 24.5 48.5Z" fill="#FCFCFC" fill-opacity="1.000000" fill-rule="nonzero"/>
	<path id="Oval 2" d="M48.5 24.5C48.5 11.24 37.75 0.5 24.5 0.5C11.24 0.5 0.5 11.24 0.5 24.5C0.5 37.75 11.24 48.5 24.5 48.5C37.75 48.5 48.5 37.75 48.5 24.5Z" stroke="#E8E8E8" stroke-opacity="1.000000" stroke-width="1.000000"/>
	<path id="Shape" d="M29.5 33.5L29.5 31.5C29.5 29.29 27.7 27.5 25.5 27.5L17.5 27.5C15.29 27.5 13.5 29.29 13.5 31.5L13.5 33.5" stroke="#278FB4" stroke-opacity="1.000000" stroke-width="2.000000" stroke-linejoin="round" stroke-linecap="round"/>
	<path id="Oval" d="M26.5 19.5C26.5 17.29 24.7 15.5 22.5 15.5C20.29 15.5 18.5 17.29 18.5 19.5C18.5 21.7 20.29 23.5 22.5 23.5C24.7 23.5 26.5 21.7 26.5 19.5Z" stroke="#278FB4" stroke-opacity="1.000000" stroke-width="2.000000" stroke-linejoin="round"/>
	<path id="Shape" d="M35.5 33.5L35.5 31.5C35.49 29.67 34.26 28.08 32.5 27.63" stroke="#278FB4" stroke-opacity="1.000000" stroke-width="2.000000" stroke-linejoin="round" stroke-linecap="round"/>
	<path id="Shape" d="M28.5 15.63C30.26 16.08 31.5 17.67 31.5 19.5C31.5 21.33 30.26 22.92 28.5 23.38" stroke="#278FB4" stroke-opacity="1.000000" stroke-width="2.000000" stroke-linejoin="round" stroke-linecap="round"/>
</svg>
