<svg width="24.000000" height="20.000000" viewBox="0 0 24 20" fill="none" xmlns="http://www.w3.org/2000/svg" xmlns:xlink="http://www.w3.org/1999/xlink">
	<desc>
			Created with Pixso.
	</desc>
	<defs/>
	<path id="Shape" d="M17 19L17 17C17 14.79 15.2 13 13 13L5 13C2.79 13 1 14.79 1 17L1 19" stroke="#278FB4" stroke-opacity="1.000000" stroke-width="2.000000" stroke-linejoin="round" stroke-linecap="round"/>
	<path id="Oval" d="M13 5C13 2.79 11.2 1 9 1C6.79 1 5 2.79 5 5C5 7.2 6.79 9 9 9C11.2 9 13 7.2 13 5Z" stroke="#278FB4" stroke-opacity="1.000000" stroke-width="2.000000" stroke-linejoin="round"/>
	<path id="Shape" d="M23 19L23 17C22.99 15.17 21.76 13.58 20 13.13" stroke="#278FB4" stroke-opacity="1.000000" stroke-width="2.000000" stroke-linejoin="round" stroke-linecap="round"/>
	<path id="Shape" d="M16 1.13C17.76 1.58 19 3.17 19 5C19 6.83 17.76 8.42 16 8.88" stroke="#278FB4" stroke-opacity="1.000000" stroke-width="2.000000" stroke-linejoin="round" stroke-linecap="round"/>
</svg>
